<?xml version="1.0" standalone="no"?>
<!DOCTYPE svg PUBLIC "-//W3C//DTD SVG 20010904//EN"
 "http://www.w3.org/TR/2001/REC-SVG-20010904/DTD/svg10.dtd">
<svg version="1.0" xmlns="http://www.w3.org/2000/svg"
 width="250.000000pt" height="115.000000pt" viewBox="0 0 250.000000 115.000000"
 preserveAspectRatio="xMidYMid meet">

<g transform="translate(0.000000,115.000000) scale(0.100000,-0.100000)"
fill="#000000" stroke="none">
<path d="M80 1139 c0 -5 5 -7 10 -4 6 3 10 8 10 11 0 2 -4 4 -10 4 -5 0 -10
-5 -10 -11z"/>
<path d="M152 1131 c13 -21 28 -19 28 5 0 8 -9 14 -20 14 -17 0 -19 -3 -8 -19z"/>
<path d="M301 1139 c-13 -5 -21 -12 -18 -15 9 -9 57 5 57 16 0 12 -7 12 -39
-1z"/>
<path d="M428 1138 c9 -9 15 -9 24 0 9 9 7 12 -12 12 -19 0 -21 -3 -12 -12z"/>
<path d="M2040 1130 c0 -24 15 -27 24 -4 9 22 8 24 -9 24 -8 0 -15 -9 -15 -20z"/>
<path d="M2148 1108 c2 -24 9 -49 14 -55 8 -10 5 -13 -10 -13 -12 0 -24 5 -28
11 -4 8 -9 7 -15 -2 -6 -9 -12 -10 -16 -4 -12 16 -37 12 -45 -7 -9 -22 -27
-23 -34 -3 -7 18 -35 20 -52 3 -9 -9 -16 -8 -30 5 -21 19 -42 22 -42 6 0 -6
-8 -8 -19 -4 -20 6 -31 -16 -31 -67 0 -20 -5 -28 -18 -28 -15 0 -18 8 -18 48
l1 47 -39 -2 c-47 -3 -44 -1 -49 -38 -2 -22 -10 -31 -25 -33 -19 -3 -22 1 -22
32 0 20 5 36 11 36 5 0 7 5 4 10 -10 17 -32 -6 -39 -40 -3 -17 -12 -30 -20
-30 -12 0 -13 6 -5 30 9 23 8 33 -4 44 -23 24 -37 -1 -37 -69 -1 -54 -2 -58
-15 -41 -8 11 -21 16 -30 12 -9 -3 -18 0 -21 9 -12 29 -25 15 -18 -20 7 -38 3
-41 -27 -25 -27 15 -24 47 7 74 20 17 25 28 20 44 -9 27 -22 28 -29 4 -2 -12
-17 -22 -37 -25 -24 -5 -31 -11 -26 -22 3 -9 2 -13 -4 -10 -6 3 -10 2 -10 -3
0 -6 7 -12 15 -16 8 -3 15 -12 15 -21 0 -17 -16 -20 -25 -4 -5 7 -13 5 -25 -6
-18 -17 -38 -5 -25 15 3 5 0 7 -8 4 -10 -3 -16 5 -20 25 -6 30 -31 43 -39 19
-6 -16 -58 -1 -58 17 0 8 -4 15 -10 15 -5 0 -7 8 -4 18 4 11 3 13 -3 5 -6 -8
-27 -11 -61 -9 -29 2 -55 -1 -58 -6 -4 -6 -9 -6 -14 2 -5 8 -13 9 -21 4 -16
-9 -89 -13 -89 -4 0 11 -64 33 -67 23 -2 -6 -18 -9 -35 -7 -37 5 -61 -12 -53
-36 7 -23 -11 -36 -61 -45 -37 -6 -42 -4 -49 17 -4 13 -6 29 -6 36 1 6 -5 12
-13 12 -9 0 -16 -11 -18 -27 -4 -41 -38 -37 -59 6 -16 34 -49 62 -49 42 0 -6
-10 -10 -22 -8 -20 2 -24 -4 -28 -38 -6 -46 -32 -64 -80 -57 -32 4 -43 21 -12
18 14 -1 16 6 13 39 -4 47 -11 62 -21 45 -6 -9 -13 -9 -28 -1 -11 6 -40 11
-63 11 -28 0 -46 6 -55 18 -12 16 -13 15 -14 -7 0 -29 26 -50 63 -51 26 0 34
-9 20 -23 -3 -4 -12 -2 -19 4 -11 9 -16 5 -24 -15 -7 -20 -16 -26 -39 -26 -24
0 -29 5 -33 30 -3 16 0 34 6 40 40 40 -22 64 -81 32 -26 -14 -46 -16 -38 -3 3
5 1 12 -5 16 -5 3 -10 1 -10 -4 0 -6 -18 -11 -40 -11 l-40 0 0 -76 c0 -66 3
-78 23 -95 l22 -19 -23 -6 -22 -6 0 -434 0 -434 690 0 690 0 -16 25 c-18 27
-11 31 34 18 17 -4 22 -11 19 -24 -4 -15 0 -19 19 -19 14 0 24 6 24 14 0 17
18 31 27 22 3 -3 0 -12 -7 -20 -10 -14 33 -15 379 -16 388 0 391 0 391 20 0
16 -4 19 -15 13 -19 -11 -85 -4 -85 8 0 5 5 9 10 9 6 0 10 11 10 25 0 16 6 25
16 25 14 0 14 3 4 15 -7 8 -25 15 -40 15 -16 0 -30 7 -34 15 -4 11 2 15 27 15
32 0 101 -20 113 -33 9 -8 -16 -38 -26 -32 -10 6 -22 -24 -14 -36 3 -5 15 -9
27 -8 44 4 57 -1 63 -26 5 -19 13 -25 35 -25 21 0 29 5 29 18 0 31 17 45 57
48 21 1 46 2 56 3 15 1 17 13 17 106 l0 105 -37 1 c-21 0 -47 4 -58 9 -14 6
-4 9 38 9 l57 1 0 75 c0 62 -2 73 -15 69 -9 -4 -15 0 -15 10 0 9 7 16 15 16
19 0 21 56 3 63 -10 4 -10 6 0 6 9 1 12 61 12 266 l0 265 -24 0 c-13 0 -26 4
-28 9 -1 4 -13 12 -25 15 -17 6 -23 3 -23 -8 0 -10 -9 -16 -26 -16 -14 0 -34
-5 -45 -10 -13 -7 -19 -7 -19 0 0 5 -7 10 -16 10 -8 0 -12 -4 -9 -10 3 -5 1
-10 -4 -10 -6 0 -11 4 -11 9 0 5 -24 9 -52 8 l-53 -2 -2 40 c-2 39 -2 39 9 11
8 -21 13 -25 19 -15 18 29 10 49 -19 49 -26 0 -27 -2 -24 -42z m-1768 -88 c0
-5 -4 -10 -9 -10 -6 0 -13 5 -16 10 -3 6 1 10 9 10 9 0 16 -4 16 -10z m1900 0
c12 0 20 -8 22 -22 3 -20 9 -22 48 -21 25 1 35 -1 23 -4 -16 -3 -23 -12 -23
-29 0 -27 -2 -28 -47 -15 -23 7 -37 5 -50 -5 -25 -18 -30 -17 -38 9 -4 13 -8
17 -12 10 -5 -15 -51 -17 -72 -4 -11 7 -10 11 6 19 10 6 27 10 38 9 10 -1 24
7 29 18 21 40 28 46 43 41 8 -3 23 -6 33 -6z m-1692 -28 c-4 -32 -20 -31 -29
1 -5 18 -2 23 13 24 15 2 19 -4 16 -25z m365 21 c-7 -2 -19 -2 -25 0 -7 3 -2
5 12 5 14 0 19 -2 13 -5z m57 -3 c0 -5 -4 -10 -10 -10 -5 0 -10 5 -10 10 0 6
5 10 10 10 6 0 10 -4 10 -10z m100 0 c0 -5 -4 -10 -10 -10 -5 0 -10 5 -10 10
0 6 5 10 10 10 6 0 10 -4 10 -10z m56 -13 c6 -13 9 -28 6 -35 -5 -17 -48 -15
-66 4 -20 20 -20 25 0 17 10 -4 17 1 21 16 7 28 25 27 39 -2z m-99 -3 c-3 -3
-12 -4 -19 -1 -8 3 -5 6 6 6 11 1 17 -2 13 -5z m-69 -23 c3 -10 -1 -12 -17 -8
-11 3 -21 0 -21 -5 0 -7 15 -8 39 -4 44 7 60 -6 40 -31 -11 -13 -10 -17 6 -29
22 -17 45 -18 45 -3 0 6 7 17 16 26 14 14 16 14 27 -2 7 -9 30 -18 51 -20 46
-4 60 -15 20 -15 -35 -1 -69 -24 -69 -48 0 -11 -9 -18 -27 -20 -22 -3 -29 2
-34 23 -6 23 -10 25 -40 19 -27 -5 -34 -3 -34 10 0 9 -7 16 -15 16 -18 0 -20
-21 -3 -38 18 -18 4 -24 -17 -8 -17 13 -18 16 -5 42 8 16 16 32 18 37 2 4 -5
7 -15 7 -11 0 -24 5 -31 12 -13 13 -62 20 -62 8 0 -4 6 -10 14 -13 20 -8 13
-67 -11 -86 -11 -9 -23 -24 -26 -33 -4 -10 -11 -18 -17 -18 -17 0 -11 38 9 52
10 7 21 23 25 36 6 19 4 25 -14 29 -17 5 -20 11 -15 32 9 34 7 33 57 38 24 3
45 7 48 10 10 9 54 -3 58 -16z m1017 10 c3 -5 0 -13 -6 -17 -9 -5 -7 -11 6
-21 18 -12 18 -13 -3 -13 -18 0 -22 6 -22 30 0 29 13 40 25 21z m-775 -11 c0
-5 -4 -10 -10 -10 -5 0 -10 5 -10 10 0 6 5 10 10 10 6 0 10 -4 10 -10z m660
-20 c0 -5 -4 -10 -9 -10 -6 0 -13 5 -16 10 -3 6 1 10 9 10 9 0 16 -4 16 -10z
m522 -15 c0 -5 -5 -11 -11 -13 -6 -2 -11 4 -11 13 0 9 5 15 11 13 6 -2 11 -8
11 -13z m-1682 -10 c0 -8 -5 -15 -11 -15 -5 0 -7 -5 -4 -10 4 -6 15 -8 26 -5
13 4 19 2 19 -9 0 -9 7 -16 15 -16 17 0 20 -26 4 -35 -17 -11 -53 3 -71 29
-14 20 -15 28 -5 50 13 29 27 34 27 11z m618 -35 c26 0 30 -25 6 -34 -17 -6
-48 9 -77 38 -10 10 -18 12 -22 6 -10 -16 -25 -12 -19 5 4 8 12 15 20 15 8 0
14 5 14 12 0 6 13 0 28 -15 15 -15 38 -27 50 -27z m417 40 c3 -5 -1 -10 -10
-10 -9 0 -13 5 -10 10 3 6 8 10 10 10 2 0 7 -4 10 -10z m-1385 -10 c-20 -13
-50 -13 -50 0 0 6 15 10 33 10 24 0 28 -3 17 -10z m1191 -10 c20 0 43 -25 35
-38 -8 -14 -56 -2 -56 14 0 8 -7 17 -15 20 -8 4 -12 11 -9 16 4 6 10 6 17 -1
6 -6 19 -11 28 -11z m336 -2 c-3 -8 -6 -5 -6 6 -1 11 2 17 5 13 3 -3 4 -12 1
-19z m-1769 -4 c13 -4 22 -14 22 -26 0 -12 -5 -17 -12 -14 -7 3 -21 9 -30 12
-10 4 -18 13 -18 20 0 16 5 16 38 8z m410 -29 c18 -38 15 -47 -10 -39 -46 14
-64 64 -25 64 16 0 28 -9 35 -25z m963 2 c-13 -13 -26 -3 -16 12 3 6 11 8 17
5 6 -4 6 -10 -1 -17z m-1118 0 c56 5 67 3 67 -9 0 -8 -9 -23 -19 -32 -17 -16
-22 -16 -48 -3 -16 8 -38 11 -53 7 -14 -4 -33 -3 -42 1 -11 6 -30 2 -56 -12
-25 -14 -47 -19 -59 -15 -16 7 -14 11 16 38 25 23 41 29 63 26 16 -3 31 -1 34
4 3 5 11 4 18 -1 8 -7 39 -8 79 -4z m1057 3 c12 -8 9 -10 -13 -10 -16 0 -26 4
-22 10 8 12 16 12 35 0z m239 -36 c6 -15 7 -24 1 -24 -6 0 -10 7 -10 15 0 20
-17 19 -29 -2 -5 -10 -13 -14 -17 -10 -5 5 -3 12 4 16 7 4 10 15 7 24 -11 26
31 9 44 -19z m231 27 c0 -11 -48 -51 -61 -51 -17 0 -9 29 13 44 25 18 48 21
48 7z m40 -7 c0 -8 -4 -12 -10 -9 -5 3 -10 10 -10 16 0 5 5 9 10 9 6 0 10 -7
10 -16z m-139 -15 c8 -17 8 -23 -2 -29 -16 -11 -43 16 -35 35 8 21 23 18 37
-6z m-1204 -7 c18 -12 28 -62 12 -62 -23 0 -36 13 -43 43 -7 28 5 35 31 19z
m-511 -14 c8 -12 -21 -38 -43 -38 -16 0 -17 22 -1 38 15 15 35 15 44 0z m576
-13 c-10 -34 -27 -36 -27 -2 -1 19 4 27 16 27 13 0 16 -5 11 -25z m791 10 c-4
-16 -53 -18 -53 -3 0 9 11 14 28 13 15 0 26 -4 25 -10z m467 -5 c0 -11 -4 -20
-10 -20 -5 0 -10 9 -10 20 0 11 5 20 10 20 6 0 10 -9 10 -20z m-580 0 c0 -5
-4 -10 -10 -10 -5 0 -10 5 -10 10 0 6 5 10 10 10 6 0 10 -4 10 -10z m420 -5
c0 -8 -7 -15 -15 -15 -16 0 -20 12 -8 23 11 12 23 8 23 -8z m220 5 c0 -5 -4
-10 -9 -10 -6 0 -13 5 -16 10 -3 6 1 10 9 10 9 0 16 -4 16 -10z m258 -7 c-4
-22 -57 -30 -69 -11 -15 23 -10 28 32 28 33 0 40 -3 37 -17z m-2084 -25 c-9
-30 -10 -32 -29 -24 -13 5 -13 9 -3 26 18 28 41 26 32 -2z m1506 12 c0 -5 -7
-10 -16 -10 -8 0 -12 5 -9 10 3 6 10 10 16 10 5 0 9 -4 9 -10z m-747 -15 c1
-5 -6 -11 -15 -13 -11 -2 -18 3 -18 13 0 17 30 18 33 0z m105 6 c10 -6 4 -10
-18 -15 -54 -10 -64 -8 -50 9 14 16 47 20 68 6z m-679 -17 c10 -9 -6 -12 -31
-7 -15 3 -25 9 -22 15 5 8 41 2 53 -8z m56 -4 c3 -5 -1 -10 -9 -10 -9 0 -16 5
-16 10 0 6 4 10 9 10 6 0 13 -4 16 -10z m1415 -10 c0 -5 -7 -10 -15 -10 -8 0
-15 5 -15 10 0 6 7 10 15 10 8 0 15 -4 15 -10z m-544 -22 c3 -4 -4 -8 -15 -8
-12 0 -21 -4 -21 -10 0 -5 21 -10 47 -10 68 0 44 -13 -29 -16 -53 -2 -60 0
-46 10 16 12 16 14 0 30 -16 16 -15 17 21 14 21 -1 41 -6 43 -10z m244 2 c0
-5 -9 -10 -20 -10 -11 0 -20 5 -20 10 0 6 9 10 20 10 11 0 20 -4 20 -10z m360
-21 c0 -5 -20 -10 -45 -11 -25 -1 -57 -3 -72 -5 -68 -7 -223 -9 -216 -2 17 17
333 34 333 18z m88 4 c-10 -2 -26 -2 -35 0 -10 3 -2 5 17 5 19 0 27 -2 18 -5z
m-551 -19 c-3 -3 -12 -4 -19 -1 -8 3 -5 6 6 6 11 1 17 -2 13 -5z m-427 -13
l45 -8 -45 -1 c-25 0 -58 4 -75 8 l-30 8 30 0 c17 0 50 -3 75 -7z m130 -3 c29
3 50 0 50 -5 0 -15 -12 -23 -24 -15 -6 4 -29 7 -50 7 -26 0 -41 5 -44 15 -3
11 -1 12 7 4 7 -6 33 -9 61 -6z m850 -103 c5 -66 6 -69 20 -47 17 25 30 29 30
7 0 -9 9 -15 24 -15 13 0 29 -7 36 -15 7 -8 17 -15 22 -15 6 0 5 7 -2 15 -15
18 3 45 29 44 14 0 13 -1 -2 -7 -16 -7 -16 -9 3 -25 11 -9 20 -23 20 -31 0 -8
11 -17 25 -20 25 -6 34 -30 15 -41 -7 -4 -7 -12 0 -25 7 -13 7 -21 0 -25 -17
-10 -43 4 -37 20 4 9 1 12 -8 9 -8 -3 -16 3 -20 16 -5 15 -13 20 -26 17 -15
-4 -19 0 -19 19 0 24 -23 33 -35 14 -9 -15 -25 -12 -25 5 0 17 -16 20 -25 5
-4 -6 -10 -8 -15 -5 -13 8 -23 -14 -16 -39 6 -25 6 -25 84 -30 29 -2 56 -6 59
-9 8 -8 -45 -33 -110 -52 -34 -10 -61 -24 -67 -36 -10 -18 -50 -28 -50 -11 0
4 15 17 32 29 l32 22 -42 7 c-47 7 -56 23 -14 25 42 2 47 3 52 14 3 6 -11 11
-30 13 -38 4 -50 15 -50 50 0 17 7 24 30 29 29 5 30 7 30 64 0 59 0 59 -30 59
-27 0 -30 -3 -31 -32 -1 -18 -1 -48 0 -66 2 -30 0 -33 -21 -30 -16 2 -25 12
-29 33 -6 25 -7 22 -8 -18 -1 -46 -1 -47 -23 -34 -17 10 -43 12 -93 8 l-70 -6
-3 -37 c-3 -39 -2 -38 -79 -38 -21 0 -33 -5 -33 -13 0 -35 -113 15 -118 52 -3
19 -1 20 23 11 37 -14 104 -9 98 8 -3 6 0 12 5 12 6 0 12 8 14 17 3 15 15 17
99 14 62 -2 99 1 104 8 3 6 -1 11 -9 11 -9 0 -16 5 -16 10 0 20 38 10 44 -12
7 -22 7 -22 16 -3 5 11 6 40 3 65 -3 32 -1 49 9 57 13 11 75 18 158 18 l35 0
5 -70z m430 5 c45 0 56 -17 16 -24 -23 -4 -34 -11 -30 -18 4 -7 3 -8 -4 -4 -7
4 -12 14 -12 22 0 8 -7 14 -15 14 -16 0 -20 12 -8 24 4 3 11 2 17 -4 5 -5 21
-10 36 -10z m-91 -17 c23 6 32 -18 20 -51 -8 -22 -29 -31 -29 -12 0 11 -45 60
-55 60 -3 0 -5 -7 -5 -15 0 -18 -21 -20 -38 -3 -17 17 -15 28 7 28 11 0 23 4
26 10 4 6 16 4 31 -6 13 -9 33 -14 43 -11z m-57 -67 c5 3 12 -3 14 -13 4 -15
12 -18 35 -15 25 4 29 1 29 -18 0 -19 -4 -21 -28 -15 -20 4 -33 1 -42 -10 -21
-26 -50 -19 -51 13 -1 15 -1 30 0 35 0 4 -3 8 -9 8 -5 1 -14 2 -19 3 -16 2
-23 14 -16 25 4 7 17 6 42 -4 19 -8 39 -12 45 -9z m-1408 7 c14 -15 144 -24
152 -11 3 5 16 2 30 -6 13 -9 30 -16 39 -16 9 0 18 -7 21 -15 7 -17 49 -20 59
-5 10 17 35 11 79 -18 30 -20 52 -27 84 -26 40 2 42 1 42 -26 0 -16 -4 -32
-10 -35 -5 -3 -10 -19 -10 -36 0 -25 -4 -29 -26 -29 -23 0 -25 2 -14 16 11 13
10 16 -7 20 -11 3 -30 18 -41 34 -22 29 -77 46 -112 35 -26 -8 -25 -19 3 -33
l22 -11 -22 0 c-27 -1 -31 -20 -5 -22 9 -1 24 -3 32 -4 8 -1 30 -3 48 -4 39
-1 43 -21 4 -21 -15 0 -34 -6 -40 -12 -10 -10 -17 -10 -33 0 -11 7 -30 10 -41
6 -12 -3 -24 -1 -28 6 -11 18 -57 21 -64 5 -3 -9 -19 -12 -48 -11 -39 2 -43 5
-46 29 -2 15 -9 27 -15 27 -6 0 -1 7 11 16 18 13 29 14 54 5 22 -8 35 -8 44 0
31 25 13 32 -70 27 -46 -3 -90 -2 -97 3 -10 6 -8 9 8 9 25 0 40 17 26 31 -15
15 -43 -1 -54 -28 -7 -20 -14 -24 -34 -19 -13 3 -26 2 -30 -3 -3 -6 10 -13 30
-17 43 -8 52 -20 31 -43 -9 -10 -16 -23 -16 -29 0 -6 -9 -14 -21 -17 -40 -13
-12 -30 54 -33 62 -3 67 -5 67 -25 0 -21 33 -49 82 -69 14 -6 17 -3 14 15 -2
13 -11 23 -24 25 -25 4 -30 22 -7 22 8 0 15 7 15 15 0 12 14 14 80 10 59 -3
79 -1 77 8 -1 6 8 13 21 15 14 2 22 -2 22 -11 0 -23 52 -28 75 -8 15 13 37 16
96 15 42 -1 85 -5 97 -8 12 -4 34 0 54 10 36 19 99 25 95 9 -1 -5 -15 -10 -30
-10 -15 0 -32 -7 -37 -15 -5 -8 -25 -15 -45 -16 -38 -1 -88 -34 -52 -34 22 0
22 -14 0 -35 -13 -13 -25 -15 -52 -9 -20 4 -62 7 -93 6 -43 0 -58 3 -58 13 0
8 -15 21 -34 30 -27 13 -39 14 -56 5 -12 -6 -34 -8 -51 -5 -32 7 -35 0 -17
-40 6 -14 9 -27 7 -30 -4 -4 -220 10 -283 18 -34 4 -28 -21 6 -28 30 -7 31 -8
11 -16 -29 -11 -79 4 -75 23 2 12 -20 17 -105 26 -60 7 -123 12 -140 12 -18 0
-33 5 -33 10 0 6 11 8 25 4 14 -3 31 -1 39 5 7 6 20 9 28 6 11 -4 15 2 15 25
0 25 -4 30 -24 30 -18 0 -24 5 -21 17 4 20 72 30 92 14 7 -6 37 -7 70 -4 l58
6 -6 31 c-11 51 -14 71 -15 77 -1 3 -24 4 -52 1 l-50 -5 3 34 3 34 55 0 c35 0
64 6 79 17 13 9 30 14 38 11 9 -4 16 2 20 16 5 22 14 26 27 14z m516 -46 c0
-28 -20 -34 -66 -19 -53 17 -43 32 24 32 28 0 42 -4 42 -13z m408 -57 c18 -11
37 -18 41 -15 5 2 14 -2 20 -9 7 -8 8 -17 3 -20 -5 -3 -7 -17 -4 -31 2 -14 0
-25 -6 -25 -15 0 -34 28 -27 40 3 5 0 10 -8 10 -16 0 -77 49 -77 62 0 14 24 9
58 -12z m692 -34 c0 -8 -51 -13 -56 -5 -3 5 9 9 25 9 17 0 31 -2 31 -4z m-880
-15 c0 -12 -35 -20 -51 -11 -8 6 -3 10 17 13 16 2 30 5 32 6 1 0 2 -3 2 -8z
m740 -1 c0 -5 -9 -10 -20 -10 -11 0 -20 5 -20 10 0 6 9 10 20 10 11 0 20 -4
20 -10z m-880 -10 c0 -5 -4 -10 -10 -10 -5 0 -10 5 -10 10 0 6 5 10 10 10 6 0
10 -4 10 -10z m-960 -35 c-7 -9 -15 -13 -19 -10 -3 3 1 10 9 15 21 14 24 12
10 -5z m385 5 c3 -5 1 -10 -4 -10 -6 0 -11 5 -11 10 0 6 2 10 4 10 3 0 8 -4
11 -10z m1430 -20 c3 -5 -3 -10 -15 -10 -12 0 -18 5 -15 10 3 6 10 10 15 10 5
0 12 -4 15 -10z m-1488 -26 c-3 -3 -12 -4 -19 -1 -8 3 -5 6 6 6 11 1 17 -2 13
-5z m1123 -7 c0 -8 -15 -13 -40 -14 -22 -1 -40 3 -40 8 0 6 -9 8 -20 4 -11 -4
-20 -2 -20 4 0 7 24 11 60 11 42 0 60 -4 60 -13z m140 -23 c0 -16 -26 -19 -35
-4 -3 6 -4 14 0 20 8 13 35 1 35 -16z m-1760 6 c0 -13 -28 -25 -38 -16 -3 4 0
11 8 16 20 13 30 12 30 0z m1910 1 c0 -15 -25 -20 -69 -14 -59 8 -50 23 14 23
30 0 55 -4 55 -9z m-368 -23 c13 -19 18 -21 31 -10 12 11 24 10 66 -4 28 -9
51 -20 51 -25 0 -5 9 -9 20 -9 11 0 20 -7 20 -15 0 -8 -7 -15 -15 -15 -8 0
-15 5 -15 10 0 6 -7 10 -15 10 -22 0 -7 -27 18 -34 16 -4 19 -8 10 -17 -8 -8
-16 -8 -31 0 -11 6 -34 8 -51 5 -26 -6 -32 -3 -41 20 -5 14 -16 26 -24 26 -9
0 -20 9 -27 21 -8 16 -17 20 -39 15 -18 -3 -33 0 -40 9 -14 17 -4 22 61 34 4
0 13 -9 21 -21z m468 8 c0 -3 -4 -8 -10 -11 -5 -3 -10 -1 -10 4 0 6 5 11 10
11 6 0 10 -2 10 -4z m-1880 -26 c0 -5 -4 -10 -10 -10 -5 0 -10 5 -10 10 0 6 5
10 10 10 6 0 10 -4 10 -10z m1295 0 c4 -6 -7 -10 -27 -9 -27 0 -30 2 -13 9 27
12 33 12 40 0z m-61 -18 c3 -5 -1 -9 -9 -9 -8 0 -12 4 -9 9 3 4 7 8 9 8 2 0 6
-4 9 -8z m-1294 -27 c0 -8 -9 -15 -21 -15 -11 0 -17 -4 -14 -10 3 -5 15 -10
26 -10 10 0 19 -4 19 -10 0 -16 -59 -12 -90 7 l-29 17 37 17 c47 22 72 23 72
4z m1451 -9 c-6 -7 -9 -21 -5 -30 4 -10 1 -16 -9 -16 -8 0 -17 7 -21 15 -3 9
-18 15 -39 15 -39 0 -51 -8 -37 -25 8 -9 2 -14 -21 -19 -18 -3 -34 -4 -36 -2
-2 2 -1 20 2 40 l7 36 85 0 c71 0 84 -2 74 -14z m-1297 -39 c16 -12 16 -14 2
-26 -9 -8 -18 -12 -19 -10 -1 2 -11 14 -21 27 -19 22 -19 22 1 22 10 0 27 -6
37 -13z m381 -7 c4 -6 -5 -10 -20 -10 -15 0 -24 4 -20 10 3 6 12 10 20 10 8 0
17 -4 20 -10z m316 -38 c-18 -6 -101 8 -101 17 0 4 25 3 57 -3 31 -5 51 -12
44 -14z m1124 8 c-3 -5 -14 -10 -23 -9 -14 0 -13 2 3 9 27 11 27 11 20 0z"/>
<path d="M1112 859 c-7 -11 -9 -25 -5 -32 4 -7 10 0 15 18 9 36 6 40 -10 14z"/>
<path d="M1935 469 c-4 -12 -2 -26 4 -32 8 -8 11 -2 11 21 0 37 -6 41 -15 11z"/>
<path d="M1001 466 c-7 -9 -11 -22 -8 -30 6 -16 55 -27 63 -15 3 5 -1 9 -8 9
-8 1 -6 6 6 15 23 17 21 21 -15 30 -17 4 -30 1 -38 -9z"/>
<path d="M1290 380 c0 -5 7 -10 16 -10 8 0 12 5 9 10 -3 6 -10 10 -16 10 -5 0
-9 -4 -9 -10z"/>
<path d="M1346 231 c-3 -5 8 -14 26 -20 38 -14 48 -14 48 -1 0 6 -9 10 -19 10
-11 0 -23 5 -26 10 -8 12 -22 13 -29 1z"/>
<path d="M1040 190 c0 -5 7 -10 16 -10 8 0 12 5 9 10 -3 6 -10 10 -16 10 -5 0
-9 -4 -9 -10z"/>
<path d="M2238 1120 c2 -16 7 -30 11 -30 4 0 20 14 36 30 l29 30 -40 0 c-39 0
-40 -1 -36 -30z"/>
<path d="M2400 1135 c0 -11 8 -13 33 -8 50 9 56 23 9 23 -30 0 -42 -4 -42 -15z"/>
<path d="M2100 1090 c0 -11 5 -20 10 -20 6 0 10 9 10 20 0 11 -4 20 -10 20 -5
0 -10 -9 -10 -20z"/>
<path d="M1352 1043 c4 -22 38 -30 38 -10 0 8 -7 18 -16 21 -23 9 -26 8 -22
-11z"/>
<path d="M1247 1043 c-13 -12 -7 -23 13 -23 13 0 18 5 14 15 -7 16 -17 19 -27
8z"/>
<path d="M1317 1043 c-4 -3 -7 -11 -7 -17 0 -6 5 -5 12 2 6 6 9 14 7 17 -3 3
-9 2 -12 -2z"/>
<path d="M2443 37 c-7 -11 24 -37 44 -37 7 0 13 8 13 19 0 21 -46 36 -57 18z"/>
<path d="M2265 10 c-3 -5 1 -10 10 -10 9 0 13 5 10 10 -3 6 -8 10 -10 10 -2 0
-7 -4 -10 -10z"/>
</g>
</svg>
